<svg width="1024" height="1024" viewBox="0 0 1024 1024" fill="none" xmlns="http://www.w3.org/2000/svg">
<rect width="1024" height="1024" fill="black"/>
<path d="M207.6 630H162.4V362H207.6V443.2L206 495.6L244.8 451.6L329.6 362H384.4L266.4 488.4L261.6 491.6L207.6 548.4V630ZM390 630H336L240.4 482.8L275.2 453.6L390 630ZM461.041 407.6H416.241V362H461.041V407.6ZM461.041 630H416.241V435.2H461.041V630ZM613.228 630H556.028L486.828 435.2H536.428L569.628 541.2L585.628 600.8L601.228 541.2L634.028 435.2H682.828L613.228 630ZM876.513 630H848.513C841.846 630 835.713 628.8 830.113 626.4C824.513 624 819.979 620.133 816.513 614.8C813.046 609.2 811.313 601.733 811.313 592.4V518V512C811.313 499.733 808.779 489.867 803.713 482.4C798.913 474.667 788.913 470.8 773.713 470.8C760.646 470.8 749.179 474.133 739.313 480.8C729.446 487.467 721.713 496 716.113 506.4L689.313 474.4C694.379 467.467 701.046 460.8 709.313 454.4C717.846 447.733 727.846 442.267 739.313 438C750.779 433.467 763.713 431.2 778.113 431.2C802.113 431.2 820.646 437.867 833.713 451.2C847.046 464.267 853.713 482.8 853.713 506.8V580C853.713 584.267 854.513 587.333 856.113 589.2C857.979 590.8 860.646 591.6 864.113 591.6H876.513V630ZM746.113 634C730.113 634 717.446 629.867 708.113 621.6C699.046 613.333 694.512 602.133 694.512 588C694.512 574.133 699.046 562.8 708.113 554C717.179 544.933 729.713 537.333 745.713 531.2L816.913 501.2L822.113 529.6L761.713 556.8C753.179 560.533 747.046 564.267 743.313 568C739.846 571.733 738.113 576.133 738.113 581.2C738.113 586.8 739.979 591.2 743.713 594.4C747.713 597.6 753.846 599.2 762.113 599.2C769.579 599.2 776.246 598.133 782.113 596C788.246 593.867 793.446 590.933 797.713 587.2C802.246 583.2 805.579 578.533 807.713 573.2C810.113 567.867 811.313 561.867 811.313 555.2L812.513 574C810.913 582.8 807.579 591.867 802.513 601.2C797.446 610.533 790.246 618.4 780.913 624.8C771.846 630.933 760.246 634 746.113 634Z" fill="url(#paint0_linear_492_2686)"/>
<defs>
<linearGradient id="paint0_linear_492_2686" x1="154.024" y1="375.5" x2="887.741" y2="662.662" gradientUnits="userSpaceOnUse">
<stop stop-color="white"/>
<stop offset="1" stop-color="#999999"/>
</linearGradient>
</defs>
</svg>
